<svg viewBox="260 108 680 90" xmlns="http://www.w3.org/2000/svg" role="img" aria-label="OpenLongTail">
  <defs>
    <linearGradient id="ltg" gradientUnits="userSpaceOnUse" x1="272" y1="0" x2="931" y2="0">
      <stop offset="0" stop-color="#5aa8ff"/>
      <stop offset="0.42" stop-color="#b9a3ff"/>
      <stop offset="0.74" stop-color="#f3a3c8"/>
      <stop offset="1" stop-color="#ffce9e"/>
    </linearGradient>
  </defs>
  <g transform="translate(267.13,176) scale(1,-1)">
    <path d="M17.03 0.00Q13.59 0.00 10.79 1.68Q8.00 3.36 6.32 6.15Q4.65 8.95 4.65 12.39L4.65 49.53Q4.65 52.97 6.32 55.77Q8.00 58.56 10.79 60.24Q13.59 61.92 17.03 61.92L54.18 61.92Q57.54 61.92 60.33 60.24Q63.13 58.56 64.85 55.77Q66.57 52.97 66.57 49.53L66.57 12.39Q66.57 8.95 64.85 6.15Q63.13 3.36 60.33 1.68Q57.54 0.00 54.18 0.00L17.03 0.00ZM17.55 12.47L53.49 12.47Q53.75 12.47 53.87 12.59Q54.01 12.73 54.01 12.98L54.01 48.94Q54.01 49.19 53.87 49.32Q53.75 49.45 53.49 49.45L17.55 49.45Q17.28 49.45 17.15 49.32Q17.03 49.19 17.03 48.94L17.03 12.98Q17.03 12.73 17.15 12.59Q17.28 12.47 17.55 12.47ZM75.86 -19.78L75.86 -19.78L75.86 49.88L114.29 49.88Q117.65 49.88 120.40 48.20Q123.16 46.52 124.78 43.77Q126.42 41.02 126.42 37.76L126.42 12.12Q126.42 8.86 124.78 6.10Q123.16 3.36 120.40 1.68Q117.65 0.00 114.29 0.00L88.06 0.00L88.06 -19.78L75.86 -19.78ZM88.58 12.21L113.70 12.21Q113.95 12.21 114.07 12.38Q114.21 12.55 114.21 12.73L114.21 37.15Q114.21 37.33 114.07 37.49Q113.95 37.67 113.70 37.67L88.58 37.67Q88.41 37.67 88.23 37.49Q88.06 37.33 88.06 37.15L88.06 12.73Q88.06 12.55 88.23 12.38Q88.41 12.21 88.58 12.21ZM144.83 0.00Q141.56 0.00 138.81 1.68Q136.05 3.36 134.37 6.10Q132.69 8.86 132.69 12.12L132.69 37.76Q132.69 41.02 134.37 43.77Q136.05 46.52 138.81 48.20Q141.56 49.88 144.83 49.88L171.14 49.88Q174.50 49.88 177.24 48.20Q179.99 46.52 181.63 43.77Q183.27 41.02 183.27 37.76L183.27 18.75L144.91 18.75L144.91 12.73Q144.91 12.55 145.08 12.38Q145.26 12.21 145.43 12.21L183.27 12.21L183.27 0.00L144.83 0.00L144.83 0.00ZM144.91 29.67L171.06 29.67L171.06 37.15Q171.06 37.33 170.88 37.49Q170.71 37.67 170.53 37.67L145.43 37.67Q145.26 37.67 145.08 37.49Q144.91 37.33 144.91 37.15L144.91 29.67ZM192.47 0.00L192.47 0.00L192.47 49.88L230.90 49.88Q234.26 49.88 237.02 48.20Q239.77 46.52 241.40 43.77Q243.04 41.02 243.04 37.76L243.04 0.00L230.82 0.00L230.82 37.15Q230.82 37.33 230.69 37.49Q230.57 37.67 230.31 37.67L205.20 37.67Q205.02 37.67 204.85 37.49Q204.67 37.33 204.67 37.15L204.67 0.00L192.47 0.00Z" fill="none" stroke="url(#ltg)" stroke-width="2.2" paint-order="stroke"/>
    <path d="M252.58 0.00L252.58 62.00L264.96 62.00L264.96 12.47L314.50 12.47L314.50 0.00L252.58 0.00ZM331.19 0.00Q327.92 0.00 325.17 1.68Q322.41 3.36 320.73 6.10Q319.05 8.86 319.05 12.12L319.05 37.76Q319.05 41.02 320.73 43.77Q322.41 46.52 325.17 48.20Q327.92 49.88 331.19 49.88L357.50 49.88Q360.86 49.88 363.60 48.20Q366.35 46.52 367.99 43.77Q369.63 41.02 369.63 37.76L369.63 12.12Q369.63 8.86 367.99 6.10Q366.35 3.36 363.60 1.68Q360.86 0.00 357.50 0.00L331.19 0.00L331.19 0.00ZM331.79 12.21L356.89 12.21Q357.07 12.21 357.24 12.38Q357.42 12.55 357.42 12.73L357.42 37.15Q357.42 37.33 357.24 37.49Q357.07 37.67 356.89 37.67L331.79 37.67Q331.62 37.67 331.44 37.49Q331.27 37.33 331.27 37.15L331.27 12.73Q331.27 12.55 331.44 12.38Q331.62 12.21 331.79 12.21ZM378.84 0.00L378.84 0.00L378.84 49.88L417.27 49.88Q420.63 49.88 423.38 48.20Q426.14 46.52 427.76 43.77Q429.40 41.02 429.40 37.76L429.40 0.00L417.19 0.00L417.19 37.15Q417.19 37.33 417.05 37.49Q416.93 37.67 416.68 37.67L391.56 37.67Q391.39 37.67 391.21 37.49Q391.04 37.33 391.04 37.15L391.04 0.00L378.84 0.00ZM445.65 -19.70L445.65 -19.70L445.65 -7.39L475.50 -7.39Q475.67 -7.39 475.83 -7.22Q476.01 -7.05 476.01 -6.88L476.01 0.00L449.78 0.00Q446.43 0.00 443.68 1.68Q440.92 3.36 439.24 6.10Q437.56 8.86 437.56 12.12L437.56 37.76Q437.56 41.02 439.24 43.77Q440.92 46.52 443.72 48.20Q446.51 49.88 449.78 49.88L476.10 49.88Q479.45 49.88 482.20 48.20Q484.96 46.52 486.58 43.77Q488.22 41.02 488.22 37.76L488.22 -7.48Q488.22 -10.92 486.62 -13.67Q485.04 -16.42 482.24 -18.06Q479.45 -19.70 476.10 -19.70L445.65 -19.70ZM450.30 12.21L475.50 12.21Q475.67 12.21 475.83 12.38Q476.01 12.55 476.01 12.73L476.01 37.15Q476.01 37.33 475.83 37.49Q475.67 37.67 475.50 37.67L450.30 37.67Q450.13 37.67 449.95 37.49Q449.78 37.33 449.78 37.15L449.78 12.73Q449.78 12.55 449.95 12.38Q450.13 12.21 450.30 12.21ZM519.27 0.00L519.27 0.00L519.27 49.45L494.50 49.45L494.50 61.92L556.42 61.92L556.42 49.45L531.74 49.45L531.74 0.00L519.27 0.00ZM574.65 0.00Q571.38 0.00 568.59 1.68Q565.79 3.36 564.15 6.10Q562.53 8.86 562.53 12.12L562.53 31.13L600.88 31.13L600.88 37.15Q600.88 37.33 600.70 37.49Q600.54 37.67 600.37 37.67L562.53 37.67L562.53 49.88L600.97 49.88Q604.32 49.88 607.07 48.20Q609.83 46.52 611.45 43.77Q613.09 41.02 613.09 37.76L613.09 0.00L574.65 0.00ZM575.25 12.21L600.88 12.21L600.88 20.21L574.74 20.21L574.74 12.73Q574.74 12.55 574.90 12.38Q575.08 12.21 575.25 12.21ZM622.21 0.00L622.21 0.00L622.21 49.88L634.43 49.88L634.43 0.00L622.21 0.00ZM622.21 53.92L622.21 53.92L622.21 66.22L634.43 66.22L634.43 53.92L622.21 53.92ZM653.77 0.00Q650.50 0.00 647.75 1.68Q644.99 3.36 643.31 6.10Q641.65 8.86 641.65 12.12L641.65 66.30L653.94 66.30L653.94 12.73Q653.94 12.55 654.12 12.38Q654.29 12.21 654.45 12.21L664.26 12.21L664.26 0.00L653.77 0.00L653.77 0.00Z" fill="url(#ltg)"/>
  </g>
</svg>
